<svg xmlns="http://www.w3.org/2000/svg" xmlns:xlink="http://www.w3.org/1999/xlink" viewBox="0 0 1159.59 373.32"><defs><style>.cls-1{fill:none;}.cls-2{fill:#7a7a7a;}.cls-3{clip-path:url(#clip-path);}.cls-4{fill:#ffaa80;}.cls-5{fill:#ff8349;}</style><clipPath id="clip-path" transform="translate(-61.77 -5.25)"><rect class="cls-1" width="371" height="371"/></clipPath></defs><g id="Ebene_2" data-name="Ebene 2"><g id="Ebene_1-2" data-name="Ebene 1"><path class="cls-2" d="M736.19,286.59c-4.47,5.73-7.9,10.48-11.68,14.93-11.46,13.45-24.31,25.2-42.09,29.42-24.81,5.89-50.18-3.62-61.49-30.23-7.8-18.35-8.63-37.2-6.55-56.55a134.19,134.19,0,0,1,19.24-56.94,137.22,137.22,0,0,1,46-45.87c16-9.72,33.35-15.86,51.76-17.57,19.87-1.83,46.36-1.11,68.46,8.57-.87,7.76-1.71,15.77-2.68,23.76-1.49,12.13-3.06,24.24-4.61,36.36s-3.14,24.23-4.67,36.35c-1.47,11.63-2.87,23.27-4.33,34.91q-2.35,18.67-4.75,37.34c-1.07,8.35-2,16.72-3.31,25-.19,1.24-1.74,3.24-2.67,3.24-9.13.07-18.34.4-27.39-.58-7.27-.78-11-6.19-10.86-14.1C734.75,305.81,735.55,297,736.19,286.59Zm13.5-128.77c-7.87,0-15-1-21.73.19-24.86,4.59-42,19.78-53.92,41.47a98.44,98.44,0,0,0-11.92,39.62c-1.1,12.63-1.48,25.23,2.61,37.39,3.92,11.66,13.55,18.13,24.49,16.92,8.06-.9,14.59-5.11,20.3-10.61,11.75-11.3,18.75-25.63,24.77-40.4,4-9.77,7.6-19.65,8.45-30.47.91-11.5,3.13-22.89,4.67-34.34C748.26,171.23,748.89,164.83,749.69,157.82Z" transform="translate(-61.77 -5.25)"/><path class="cls-2" d="M823.16,329.51c.94-8.71,1.72-16.59,2.65-24.45,1.15-9.67,2.44-19.32,3.66-29,1.6-12.77,3.25-25.55,4.78-38.33,1.47-12.31,2.76-24.63,4.24-36.94,1.51-12.62,3.18-25.22,4.71-37.84,1.14-9.35,2.17-18.71,3.28-28.07a41,41,0,0,1,1.11-6.83c.29-1,1.61-2.44,2.45-2.43,9,.11,18,0,26.83.94,6.63.72,10.7,6.27,10.61,13-.11,7.29-.62,14.57-.89,21.86a19.38,19.38,0,0,0,1.06,7.9c1.6-1.92,3.33-3.75,4.77-5.78,12.08-17.06,27.13-30.49,47.28-37,20.49-6.63,44.89-5.17,59.24,15.8,6.23,9.1,9.11,19.32,10.65,30.14,2.22,15.69-1.29,30.94-3,46.34-1.41,13-2.62,26-4.14,38.94-1.84,15.75-4,31.46-5.85,47.2-.84,6.89-1.26,13.83-2.23,20.7-.21,1.42-2,3.72-3.14,3.74-14.49.23-29,.14-43.48.09a7.5,7.5,0,0,1-2.09-.8c1.89-15.13,3.83-30.16,5.63-45.2,1.47-12.3,2.72-24.63,4.18-36.94,1.53-12.95,3.66-25.86,4.63-38.85a193,193,0,0,0,.08-32.16c-.75-8.09-8.13-12.74-16.43-13-15.5-.48-26.67,7.48-36.36,18.36a105.21,105.21,0,0,0-21.72,38.71c-2.6,8.27-3.83,17-5.09,25.64-1.59,10.94-2.63,22-3.84,33-1.13,10.18-2.15,20.38-3.25,30.57-.65,6.07-1.23,12.17-2.15,18.2a4,4,0,0,1-2.94,2.46C853.64,329.56,838.84,329.51,823.16,329.51Z" transform="translate(-61.77 -5.25)"/><path class="cls-2" d="M1036.08,246.72a141.62,141.62,0,0,1,13.49-60.2c13.29-28.06,34.17-48.85,63.84-58.61,28.34-9.32,56-6.87,80.28,12.39,13.51,10.74,20.94,25.73,24.61,42.25a118.82,118.82,0,0,1,3,29c-.91,29.88-9.54,57.41-28.46,81-17.82,22.21-40.51,37-69.24,39.66-26.7,2.46-51-4.23-68.77-26-9.8-12-15.21-26.32-17.32-41.71C1036.73,258.65,1036.55,252.67,1036.08,246.72Zm48,.35c.49,5.94.64,11.93,1.52,17.8,1.39,9.31,4,18.4,11.82,24.43,10.67,8.26,23,7.94,35,4,13.48-4.36,21.88-14.91,27.88-26.93a121.47,121.47,0,0,0,10.9-78.68c-5.25-27.4-28.25-33.34-49.68-24.13-11.38,4.89-18.36,14.41-24,25C1087.74,206.81,1084.46,226.56,1084.09,247.07Z" transform="translate(-61.77 -5.25)"/><path class="cls-2" d="M411.52,162.07c-6.48-1.32-12.41-2.11-18.07-3.79-7.14-2.1-9.06-6.13-7.68-13.31a94.2,94.2,0,0,0,1.63-12.26c.22-3.74,1.63-5.41,5.51-5.29,6,.19,12-.12,18,.11,3.81.15,5.41-1.3,5.59-5.08.77-15.75,4.21-30.82,11.88-44.74C439.79,57,457.29,44.53,480.24,39.47c12.47-2.75,24.94-3.09,37.41.15,3.48.91,5.39,2.09,4.08,6.52-1.64,5.51-2.16,11.34-3.16,17-1.11,6.32-2.79,7.85-9,8.36-5.28.43-10.61.56-15.81,1.45-15.93,2.73-25,12.87-28.43,28.13-1.89,8.32-2.83,16.86-4.32,26.1h46c-1.06,7.92-2,15-3,22.18,0,.32-.25.62-.31.94-2.12,11.2-2.12,11.2-13.43,11.2H458.72c-1.09,8.8-2.13,17.27-3.19,25.74-1.58,12.62-3.24,25.22-4.74,37.85-1.18,9.84-2.15,19.72-3.27,29.57-1.31,11.49-2.56,23-4,34.46-1.52,11.79-2.6,23.69-5.13,35.27-2.79,12.74-6.81,25.23-10.67,37.71-3.41,11-11.19,16.39-22.7,16.4-5.17,0-10.34-.12-15.5,0-3.52.1-4.28-1.63-3.9-4.68,2.33-19,4.57-38,6.94-57.05,2.58-20.65,5.37-41.27,7.87-61.93,2.18-18,4-36.13,6.15-54.18C408,188,409.82,175.21,411.52,162.07Z" transform="translate(-61.77 -5.25)"/><path class="cls-2" d="M519.72,329.26c1.91-14.95,3.83-29.33,5.57-43.73,1.5-12.46,2.71-25,4.21-37.43,1.82-15.08,3.86-30.13,5.71-45.21,1.5-12.13,2.8-24.29,4.27-36.42,1.51-12.46,3.15-24.9,4.68-37.35,1.15-9.35,2.17-18.71,3.32-28.05,1.56-12.79,3.24-25.55,4.77-38.34.84-7.06,1.59-14.13,2.2-21.21.55-6.35,1.15-7,7.42-7.05,12,0,24,.05,36,0,3.58,0,4.72.58,4,4.9C600,51.74,599,64.28,597.51,76.75s-3.2,24.89-4.72,37.34c-1.48,12.14-2.8,24.29-4.27,36.43-1.51,12.45-3.15,24.89-4.68,37.35-1.14,9.34-2.17,18.7-3.32,28-1.56,12.78-3.22,25.55-4.77,38.34-1.14,9.34-2.11,18.71-3.23,28.06q-2.32,19.43-4.78,38.84c-.33,2.56-.08,6.38-1.56,7.34-2.19,1.42-5.7,1-8.65,1-10.66.09-21.32.05-32,0C523.77,329.51,522,329.36,519.72,329.26Z" transform="translate(-61.77 -5.25)"/><g class="cls-3"><g class="cls-3"><path class="cls-4" d="M185.5,176.57c-24.34,0-44.08-20.18-44.08-45.08S161.16,86.4,185.5,86.4s44.07,20.19,44.07,45.09-19.73,45.08-44.07,45.08m0-171.32c-68.16,0-123.41,56.52-123.41,126.24,0,94.67,123.41,234.44,123.41,234.44S308.91,226.16,308.91,131.49c0-69.72-55.25-126.24-123.41-126.24" transform="translate(-61.77 -5.25)"/><path class="cls-5" d="M205.46,176.37s-13.85.2-20,.2c-25.27,0-45.57-21.61-44.11-47.73,1.29-23.09,20.06-41.7,42.72-42.41A43.31,43.31,0,0,1,210,94h0l0,0c.5.34,1,.7,1.47,1.06,2.92,1.81,9.63,4.43,15.58-4.4l37.66-55.95a121.58,121.58,0,0,0-79.2-29.43c-68.34,0-123.74,56.52-123.74,126.24C61.77,226,185,365.39,185.5,365.93V247.1h33.68V190.38a13.88,13.88,0,0,0-13.73-14" transform="translate(-61.77 -5.25)"/></g></g></g></g></svg>